<?xml version="1.0" encoding="UTF-8" standalone="no"?>
<!-- Created with Inkscape (http://www.inkscape.org/) -->

<svg
   version="1.1"
   width="106.71429"
   height="178.14285"
   id="svg2"
   sodipodi:docname="lmb.svg"
   inkscape:version="1.2 (1:1.2.1+202207142221+cd75a1ee6d)"
   inkscape:export-filename="lmb.png"
   inkscape:export-xdpi="200"
   inkscape:export-ydpi="200"
   xmlns:inkscape="http://www.inkscape.org/namespaces/inkscape"
   xmlns:sodipodi="http://sodipodi.sourceforge.net/DTD/sodipodi-0.dtd"
   xmlns="http://www.w3.org/2000/svg"
   xmlns:svg="http://www.w3.org/2000/svg">
  <sodipodi:namedview
     id="namedview11"
     pagecolor="#505050"
     bordercolor="#eeeeee"
     borderopacity="1"
     inkscape:showpageshadow="0"
     inkscape:pageopacity="0"
     inkscape:pagecheckerboard="0"
     inkscape:deskcolor="#505050"
     showgrid="false"
     inkscape:zoom="2.8151564"
     inkscape:cx="27.707164"
     inkscape:cy="78.681241"
     inkscape:window-width="1920"
     inkscape:window-height="1049"
     inkscape:window-x="0"
     inkscape:window-y="360"
     inkscape:window-maximized="1"
     inkscape:current-layer="svg2" />
  <defs
     id="defs4" />
  <path
     d="m 98.81401,92.292362 c 0,40.726098 -20.35174,73.741138 -45.45687,73.741138 -25.10512,0 -45.45686,-33.01504 -45.45686,-73.741138 0,-40.726109 20.70888,-65.883998 45.814,-65.883998 25.10513,0 45.09973,25.157889 45.09973,65.883998 z"
     id="path3614"
     style="fill:#f3f3f3;fill-opacity:1;stroke:none" />
  <path
     d="m 52.78605,26.405675 c -19.9545,0.35493 -38.81849,18.341245 -43.95019,53.919097 14.60178,5.15827 30.13123,7.90028 44.01269,7.84629 l -0.0625,-69.046637 z"
     id="path3600"
     style="fill:#00a0f0;fill-opacity:1;stroke:none" />
  <path
     d="m 54.015937,26.405673 c 19.9545,0.35493 38.81849,18.341245 43.95019,53.9191 -14.60178,5.158271 -30.13123,7.900281 -44.01269,7.846291 l 0.0625,-69.046641 z"
     id="path3600-3"
     style="fill:#484537;fill-opacity:1;stroke:none" />
  <path
     d="m 98.81401,92.292362 c 0,40.726098 -20.35174,73.741138 -45.45687,73.741138 -25.10512,0 -45.45686,-33.01504 -45.45686,-73.741138 0,-40.726109 20.70888,-65.883998 45.814,-65.883998 25.10513,0 45.09973,25.157889 45.09973,65.883998 z"
     id="path2818"
     style="fill:none;stroke:#000000;stroke-width:2;stroke-linecap:butt;stroke-linejoin:round;stroke-miterlimit:4;stroke-dasharray:none;stroke-dashoffset:0;stroke-opacity:1" />
  <path
     d="m 98.05642,81.097102 c -27.56745,10.12207 -59.64289,10.75051 -89.90358,0"
     id="path2822"
     style="fill:none;stroke:#000000;stroke-width:2;stroke-linecap:butt;stroke-linejoin:miter;stroke-miterlimit:4;stroke-dasharray:none;stroke-opacity:1" />
  <path
     d="M 53.35714,26.617565 V 88.448732"
     id="path2824"
     style="fill:none;stroke:#000000;stroke-width:2;stroke-linecap:butt;stroke-linejoin:miter;stroke-miterlimit:4;stroke-dasharray:none;stroke-opacity:1" />
  <path
     d="M 52.87088,26.081219 C 40.98058,6.510069 77.3951,0.558788 78.9423,-14.142858"
     id="path2826"
     style="fill:none;stroke:#000000;stroke-width:3;stroke-linecap:butt;stroke-linejoin:miter;stroke-miterlimit:4;stroke-dasharray:none;stroke-opacity:1" />
</svg>
